<?xml version="1.0" encoding="iso-8859-1"?>
<!-- Generator: Adobe Illustrator 19.0.0, SVG Export Plug-In . SVG Version: 6.00 Build 0)  -->
<svg version="1.1" id="Layer_1" xmlns="http://www.w3.org/2000/svg" xmlns:xlink="http://www.w3.org/1999/xlink" x="0px" y="0px"
	 viewBox="0 0 512 512" style="enable-background:new 0 0 512 512;" xml:space="preserve">
<path style="fill:#00D7DF;" d="M58.526,511.149V0H234.06c63.419,0,112.924,11.762,148.499,35.283
	c35.57,23.518,53.359,58.57,53.359,105.143c0,24.344-5.729,45.982-17.2,64.949c-11.469,18.962-29.137,33.237-53.013,42.829
	c29.957,6.785,52.072,20.418,66.353,40.899c14.27,20.48,21.416,44.063,21.416,70.74c0,49.851-16.735,87.535-50.198,113.039
	c-33.474,25.516-81.448,38.267-143.943,38.267H58.526z M177.536,213.096h58.978c26.914-0.468,47.044-5.675,60.387-15.625
	c13.34-9.944,20.013-24.513,20.013-43.705c0-21.768-6.791-37.619-20.359-47.569c-13.582-9.944-34.409-14.921-62.495-14.921h-56.524
	V213.096z M177.536,291.738v128.137h81.795c25.279,0,44.238-4.976,56.876-14.926c12.635-9.944,18.961-25.212,18.961-45.807
	c0-22.236-5.444-39.028-16.33-50.381c-10.88-11.348-28.492-17.023-52.83-17.023H177.536L177.536,291.738z"/>
<path style="fill:#00A1A7;" d="M432.058,289.103c-14.281-20.48-36.396-34.11-66.353-40.899c23.876-9.592,41.541-23.87,53.013-42.829
	c11.469-18.964,17.2-40.606,17.2-64.949c0-46.571-18.257-81.625-53.827-105.143c-31.36-20.734-73.49-32.321-127.03-34.775v91.964
	c16.907,2.009,31.256,6.577,41.023,13.726c13.565,9.95,20.593,25.8,20.593,47.569c0,19.19-7.022,33.758-20.362,43.705
	c-9.894,7.38-24.344,12.137-41.251,14.298v80.436h10.942c24.338,0,41.95,5.441,52.83,16.789
	c10.885,11.353,16.33,28.027,16.33,50.262c0,20.596-6.323,35.373-18.962,45.317c-12.635,9.95-31.597,14.436-56.876,14.436h-4.272
	V512h4.272c62.495,0,110.469-13.179,143.943-38.692c33.462-25.505,50.198-63.399,50.198-113.251
	C453.474,333.38,446.331,309.581,432.058,289.103z"/>
<g>
</g>
<g>
</g>
<g>
</g>
<g>
</g>
<g>
</g>
<g>
</g>
<g>
</g>
<g>
</g>
<g>
</g>
<g>
</g>
<g>
</g>
<g>
</g>
<g>
</g>
<g>
</g>
<g>
</g>
</svg>
